<?xml version="1.0" encoding="UTF-8" standalone="no"?>
<svg
   xmlns:dc="http://purl.org/dc/elements/1.1/"
   xmlns:cc="http://creativecommons.org/ns#"
   xmlns:rdf="http://www.w3.org/1999/02/22-rdf-syntax-ns#"
   xmlns:svg="http://www.w3.org/2000/svg"
   xmlns="http://www.w3.org/2000/svg"
   xmlns:sodipodi="http://sodipodi.sourceforge.net/DTD/sodipodi-0.dtd"
   xmlns:inkscape="http://www.inkscape.org/namespaces/inkscape"
   width="748"
   height="1097"
   version="1.1"
   id="svg3959"
   sodipodi:docname="horse.svg"
   inkscape:version="0.92.4 (5da689c313, 2019-01-14)">
  <metadata
     id="metadata3965">
    <rdf:RDF>
      <cc:Work
         rdf:about="">
        <dc:format>image/svg+xml</dc:format>
        <dc:type
           rdf:resource="http://purl.org/dc/dcmitype/StillImage" />
        <dc:title></dc:title>
      </cc:Work>
    </rdf:RDF>
  </metadata>
  <defs
     id="defs3963" />
  <sodipodi:namedview
     pagecolor="#ffffff"
     bordercolor="#666666"
     borderopacity="1"
     objecttolerance="10"
     gridtolerance="10"
     guidetolerance="10"
     inkscape:pageopacity="0"
     inkscape:pageshadow="2"
     inkscape:window-width="2256"
     inkscape:window-height="1410"
     id="namedview3961"
     showgrid="true"
     inkscape:pagecheckerboard="true"
     inkscape:zoom="0.90509668"
     inkscape:cx="21.183434"
     inkscape:cy="529.35364"
     inkscape:window-x="-11"
     inkscape:window-y="-11"
     inkscape:window-maximized="1"
     inkscape:current-layer="svg3959">
    <inkscape:grid
       type="xygrid"
       id="grid4123" />
  </sodipodi:namedview>
  <path
     style="fill:#7a0e0e;stroke:none;fill-opacity:1"
     d="M 491 0 L 491 3 L 493 3 L 493 0 L 491 0 z M 497 0 C 498.717 1.83984 499.566 2.34863 502 3 C 500.554 0.717163 499.69 0.417603 497 0 z M 135 36 C 131.799 43.077 126.60334 51.0212 126.27734 59 C 125.97034 66.5027 128.97733 75.6276 130.48633 83 C 132.24533 91.5962 133.28416 101.261 133.91016 110 C 136.46316 145.604 137.75855 181.825 144.31055 217 C 148.46155 239.283 155.7 260.827 160 283 C 152.881 285.606 146.68 290.445 140 294 C 136.939 285.925 131.02914 278.764 127.11914 271 C 121.72114 260.283 117.77375 248.54 114.59375 237 C 107.65075 211.806 105.30584 183.051 107.08984 157 C 108.32584 138.945 111.576 121.05 113 103 C 109.334 105.501 108.59181 109.933 107.25781 114 C 104.78381 121.545 102.49117 129.173 101.07617 137 C 95.146172 169.809 94.652838 202.324 102.33594 235 C 104.15094 242.717 107.11094 250.02 110.83594 257 C 112.34094 259.819 115.93606 264.20617 115.41406 267.57617 C 115.03106 270.04517 112.54705 272.214 110.99805 274 C 106.38605 279.319 101.339 283.98817 96 288.57617 C 76.1626 305.62217 53.59 319.313 32 334 C 38.8065 339.157 54.3676 334.20539 62 332.15039 C 86.5671 325.53639 111.137 313.214 137 313 C 124.965 334.617 109.99325 354.093 100.15625 377 C 90.12555 400.355 85.958 425.724 76.125 449 C 71.7213 459.424 61.9853 466.71 58 477 C 71.3973 482.026 85.9716 483.23283 100 485.29883 C 112.186 487.09483 124.707 489.04316 137 489.91016 C 146.124 490.55316 154.941 492.01878 164 493.05078 C 168.992 493.61978 175.58839 493.73475 179.77539 496.84375 C 187.19539 502.35375 188.6923 516.188 185.6543 524 C 179.3683 540.162 164.28417 555.528 171.32617 574 C 173.72517 580.295 178.24339 585.796 182.40039 591 C 187.97639 597.981 193.984 604.75298 201 610.33398 C 216.557 622.70798 234.84608 632.13 247.33008 648 C 258.96508 662.79 264.36384 681.587 266.71484 700 C 268.00484 710.107 268.088 721.239 271 731 C 278.517 723.689 280.77683 710.792 283.42383 701 C 289.61383 678.103 288.94792 654.349 291.16992 631 C 292.34892 618.606 294.55189 601.84995 289.71289 590.00195 C 286.02989 580.98395 275.323 578.521 269 572 C 276.963 572.793 290.23316 575.64569 295.41016 582.30469 C 297.66016 585.19869 297.90461 589.517 298.59961 593 C 300.58861 602.959 300.999 613.846 301 624 C 301.001 647.47 300.54478 671.788 296.67578 695 C 293.44278 714.396 287.518 733.505 285 753 C 304.666 757.057 326.956 760.05583 347 757.42383 C 351.296 756.85983 359.91548 758.72966 363.39648 755.97266 C 366.20848 753.74566 365.67716 744.417 365.91016 741 C 366.93416 726.051 365.60952 710.873 367.72852 696 C 370.84952 674.095 370 651.123 370 629 L 370 534 C 370 520.106 370.98416 505.793 369.28516 492 C 368.50716 485.691 367.57702 479.25155 363.29102 474.18555 C 357.76302 467.65155 348.851 466.88045 341 465.56445 C 322.75 462.50345 305.308 463.91005 287 463.99805 C 279.336 464.03505 269.46369 462.31036 262.05469 464.31836 C 255.71469 466.03636 257.71147 477.07042 251.85547 477.98242 C 248.61247 478.48642 244.014 475.30375 241 474.21875 C 233.771 471.61875 225.681 469.61984 218 469.08984 C 204.353 468.14984 190.632 468.84316 177 467.91016 C 147.99 465.92316 119.127 463 90 463 C 91.4597 454.413 95.062031 446.065 98.269531 438 C 106.76323 416.643 118.26041 396.297 130.69141 377 C 137.77941 365.997 147.627 353.237 160 348 C 157.192 357.24 156.46245 367.482 154.68945 377 C 151.54745 393.868 147.08495 411.786 147.00195 429 C 146.97395 434.755 146.46884 440.283 146.08984 446 C 145.94284 448.2 145.55234 451.53448 147.02734 453.39648 C 149.46734 456.47748 157.524 455 161 455 L 200 455 L 360 455 L 361 315 C 368.014 314.094 374.923 312.59384 382 312.08984 C 384.721 311.89584 388.34306 311.41967 390.78906 312.88867 C 398.14906 317.30967 399.20433 331.473 400.61133 339 C 405.50933 365.191 399.17216 392.628 402.28516 419 C 403.97016 433.267 407.28212 447.518 405.82812 462 C 405.00813 470.171 401.55878 478.043 399.67578 486 C 396.10178 501.106 394.14684 516.555 393.08984 532 C 392.22984 544.554 393 557.416 393 570 C 393 590.008 392.72384 610.06 394.08984 630 C 395.02484 643.656 396.83309 657.299 396.99609 671 C 397.21409 689.319 397.999 707.745 398 726 C 398.001 734.357 395.93836 745.83556 398.31836 753.85156 C 399.90136 759.18256 410.745 756.76492 415 757.16992 C 430.527 758.64692 445.519 757.15906 461 755.91406 C 464.893 755.60106 474.60247 756.0657 476.35547 751.7207 C 477.53747 748.7927 475.59392 744.941 475.16992 742 C 473.82092 732.651 472.12667 723.294 470.38867 714 C 465.11467 685.796 459 655.739 459 627 C 459 616.282 459.532 600.89 466 592 C 466.001 605.371 469.34117 618.729 470.82617 632 C 473.55617 656.403 476.11514 680.895 481.11914 705 C 482.84814 713.33 485.862 721.59 487 730 C 491.821 724.92 492.25016 716.612 493.66016 710 C 497.16816 693.559 497.32395 673.801 505.87695 659 C 512.53595 647.476 524.061 639.23552 534 630.72852 C 551.898 615.40952 571.71408 599.589 586.33008 581 C 593.43508 571.964 593.12709 562.982 592.99609 552 C 592.94609 547.811 592.92341 541.81458 589.56641 538.76758 C 584.73341 534.38258 575.1 535.469 569 534 C 574.478 521.691 576.61362 505.19459 588.01562 496.55859 C 593.10262 492.70459 600.814 491.64247 607 490.73047 C 618.38 489.05347 629.529 487.75116 641 486.91016 C 669.843 484.79416 697.487 478.816 725 470 C 719.541 465.937 712.429 466.51277 706 465.38477 C 685.794 461.83877 664.462 464 644 464 C 624.471 464 604.48 462.75584 585 464.08984 C 562.454 465.63384 540.707 469.26609 518 468.99609 C 505.142 468.84309 491.864 465.39392 479 464.16992 C 462.681 462.61692 445.397 463 429 463 L 429 461 C 447.318 460.949 465.722 456.34884 484 455.08984 C 510.073 453.29484 536.86 455 563 455 C 575.756 455 588.436 454.23688 601 452.29688 C 604.769 451.71488 611.29648 452.30027 614.39648 449.82227 C 616.54748 448.10127 615.995 444.42 616 442 C 616.014 435.334 616.03005 428.666 615.99805 422 C 615.89005 399.649 608.76733 376.692 603.98633 355 C 602.35733 347.612 597.95327 338.58091 598.32227 331.00391 C 598.62027 324.88991 606.611 321.91009 611 318.99609 C 621.083 312.30309 629.33488 304.443 635.54688 294 C 652.87887 264.866 662.76784 227.546 665.08984 194 C 665.43984 188.957 666.86038 184.071 666.98438 179 C 667.19137 170.549 665.50216 162.393 665.03516 154 C 664.31716 141.121 660.98686 128.117 656.63086 116 C 655.05986 111.628 653.814 105.852 650 103 C 650.054 122.66 656.09594 142.266 656.96094 162 C 657.60594 176.736 655.70216 191.525 653.28516 206 C 650.57516 222.227 647.96494 238.408 642.46094 254 C 637.38294 268.384 629.84 281.025 622 294 C 617.266 290.56 606.75417 287.03788 604.20117 281.67188 C 602.01017 277.06588 606.84917 267.576 608.20117 263 C 612.66117 247.908 614.91025 232.303 618.40625 217 C 621.36025 204.07 621.83287 190.177 623.17188 177 C 624.72487 161.709 626.85316 146.346 627.91016 131 C 628.57116 121.397 628.04906 111.552 629.28906 102 C 631.98106 81.2748 640.584 58.8773 630 39 C 616.818 50.7087 610.16717 71.1469 603.57617 87 C 593.52217 111.184 584.32831 135.741 574.44531 160 C 570.26531 170.261 566.33402 181.267 561.04102 191 C 549.04702 213.053 525.989 222.511 507 237 C 506.341 226.765 508.51294 216.228 508.96094 206 C 509.56794 192.104 507.42886 176.415 500.88086 164 C 489.44286 142.315 465.095 128.42917 444 117.57617 C 417.492 103.93917 386.712 92.148262 357 88.289062 C 343.823 86.577462 330.277 87 317 87 C 301.732 87 286.189 86.723422 271 88.169922 C 247.313 90.425822 224.469 95.975756 202 103.78516 C 195.437 106.06516 188.686 107.70664 182 109.55664 C 179.1 110.35864 175.18984 112.21173 172.21484 110.80273 C 167.18384 108.41973 164.28008 96.8306 162.08008 92 C 153.64508 73.4801 144.811 54.7621 137 36 L 135 36 z M 182.88867 120.94727 C 203.1446 121.09028 227.3485 122.48663 246 128 C 242.856 134.742 236.21894 140.59794 231.08594 145.96094 C 220.93494 156.56794 210.482 169.192 198 177 C 192.768 167.808 188.90437 157.757 184.85938 148 C 182.43038 142.141 179.561 136.383 179 130 L 174.47656 120.95508 C 177.18144 120.9327 179.99497 120.92683 182.88867 120.94727 z "
     id="path3953" />
  <path
     style="fill:#eeeeee;stroke:none;fill-opacity:1"
     d="m 263,487 c -1.604,17.965 13.659,34.827 30,40 -6.147,-14.766 -16.823,-30.718 -30,-40"
     id="path4055" />
  <path
     style="fill:#eeeeee;stroke:none;fill-opacity:1"
     d="m 215,495 c 0.376,8.75 1.665,19.3 6.105,27 10.641,18.453 33.63,28.611 52.895,35.074 7.294,2.447 15.279,4.857 23,4.926 -16.737,-31.775 -43.323,-65.34 -82,-67"
     id="path4053" />
  <path
     style="fill:#eeeeee;stroke:none;fill-opacity:1"
     d="m 466,562 c 19.975,-4.579 41.111,-11.76 58,-23.589 5.504,-3.856 11.324,-7.755 15.15,-13.411 5.941,-8.784 6.962,-19.869 8.85,-30 -8.757,1.131 -18.133,3.192 -26,7.32 -14.176,7.439 -25.743,21.099 -36.31,32.85 -7.024,7.81 -16.324,16.679 -19.69,26.83"
     id="path4051" />
  <path
     style="fill:#eeeeee;stroke:none;fill-opacity:1"
     d="m 206,550 c 13.901,14.873 34.851,24.41 55,26 -8.96,-19.215 -35.81,-25.176 -55,-26"
     id="path4045" />
  <path
     style="fill:#ffffff; stroke:none;"
     d="m 267.667,571.333 c -0.445,0.445 0.611,0.389 0.666,0.334 0.445,-0.445 -0.611,-0.389 -0.666,-0.334"
     id="path4039" />
  <path
     style="fill:#7a0e0e;stroke:none;fill-opacity:1"
     d="M171 619C170.912 623.265 171.212 632.426 167.486 635.292C165.337 636.946 162.335 635.588 160 635.119C153.32 633.776 146.62 632.632 140 631C137.154 642.552 138.274 654.221 137.985 666C137.586 682.316 137 698.618 137 715C137 734.715 134 754.209 134 774C134 815.806 136.494 857.809 127.88 899C122.059 926.842 102.754 950.177 90 975C96.1389 972.622 100.503 967.623 105.285 963.251C122.128 947.851 132.969 924.823 141.446 904C158.266 862.682 166.867 817.447 169.91 773C172.243 738.933 168.999 703.511 177 670L179 670C181.769 678.746 187.918 686.799 192.077 695C201.541 713.659 209.605 733.132 223.715 748.911C229.14 754.977 235.057 761.464 243 764C245.395 733.652 245.241 697.399 229.827 670C221.978 656.047 209.477 644.228 196.715 634.786C189.107 629.157 180.281 621.388 171 619M521 763C530.192 759.875 537.937 749.433 543.789 742C556.337 726.065 564.463 708.105 573.258 690C577.698 680.859 583.751 670.925 586 661C589.453 668.173 588.435 676.283 589.17 684C591.074 704.008 591.522 723.908 592.015 744C592.669 770.721 595.802 797.693 600.537 824C606.404 856.597 612.998 887.985 627.756 918C637.451 937.718 649.598 961.472 670 972C667.197 958.922 656.998 946.485 650.427 935C641.127 918.743 634.428 900.691 632.184 882C629.478 859.452 630.459 836.61 628.911 814C627.153 788.335 624.382 762.827 625.015 737C625.862 702.416 630.797 666.11 623 632C616.543 632.018 610.377 633.536 604 634.424C601.241 634.809 597.867 635.695 595.184 634.536C591.292 632.853 588.442 627.297 586 624C579.427 625.897 573.777 630.043 568 633.612C542.752 649.209 525.241 675.771 520.324 705C518.821 713.935 519 722.974 519 732C519 741.765 518.232 753.637 521 763M239 921C265.543 915.85 302.254 905.26 323 929C309.607 929 297.991 926.393 285 923.424C278.708 921.986 272.019 919.324 266.04 923.148C257.336 928.715 254.946 940.568 253.579 950C249.381 978.983 262.571 1002.2 275.702 1027C280.53 1036.12 285.796 1048.49 295.001 1053.99C300.204 1057.1 307.292 1056.2 313 1055.25C325.761 1053.12 338.252 1049.54 351 1047.32C370.34 1043.96 392.715 1043.78 412 1047.67C421.65 1049.61 431.402 1051.34 441 1053.5C447.981 1055.07 456.786 1057.79 463.985 1057.09C468.531 1056.65 471.745 1051.45 474.1 1048C480.554 1038.55 484.818 1027.92 490.424 1018C496.294 1007.61 503.15 997.358 507.049 986C511.231 973.821 511.305 958.487 508.661 946C507.41 940.092 506.857 931.158 502.348 926.652C499.466 923.771 494.755 923.448 491 922.525C481.761 920.256 471.521 918.079 462 918C469.024 915.031 476.488 915 484 915C497.326 915 510.793 916.331 524 918C522.847 903.411 517.758 889.198 514.5 875C506.714 841.074 497.65 806.53 493 772C471.991 772 451.087 770 430 770C424.577 770 419.384 770.217 414.001 770.835C412.024 771.062 409.406 770.862 408.028 772.603C406.229 774.876 407 779.306 407 782L407 806L407 878C407 891.198 408.506 906.082 405.152 918.961C402.909 927.574 391.395 934.881 383 936.29C372.37 938.075 360.192 926.645 357.708 917C356.218 911.213 357.219 904.911 356.961 899C355.601 867.961 357 837.008 357 806C357 797.962 356.001 790.054 356 782C356 779.307 356.772 774.875 354.972 772.603C352.685 769.716 346.22 771.131 343 770.911C331.644 770.133 320.41 770 309 770C299.192 770 289.722 770.028 280 771.421C277.328 771.803 272.941 771.309 270.728 773.028C267.993 775.152 267.493 780.84 266.923 784C265.301 792.988 264.066 802.03 262.389 811C258.064 834.13 253.053 857.076 247.765 880C244.685 893.35 240.088 907.332 239 921z"
     id="path3957" />
  <path
     inkscape:connector-curvature="0"
     style="fill:#eeeeee;stroke:none;fill-opacity:1"
     d="m 505,487 c 1.604,17.965 -13.659,34.827 -30,40 6.147,-14.766 16.823,-30.718 30,-40"
     id="path4055-7" />
  <path
     inkscape:connector-curvature="0"
     style="fill:#eeeeee;stroke:none;fill-opacity:1"
     d="m 490,577 c 13.901,-14.873 34.851,-24.41 55,-26 -8.96,19.215 -35.81,25.176 -55,26"
     id="path4045-5" />
</svg>
