<?xml version="1.0" encoding="UTF-8" standalone="no"?>
<svg
   xmlns:dc="http://purl.org/dc/elements/1.1/"
   xmlns:cc="http://creativecommons.org/ns#"
   xmlns:rdf="http://www.w3.org/1999/02/22-rdf-syntax-ns#"
   xmlns:svg="http://www.w3.org/2000/svg"
   xmlns="http://www.w3.org/2000/svg"
   xmlns:sodipodi="http://sodipodi.sourceforge.net/DTD/sodipodi-0.dtd"
   xmlns:inkscape="http://www.inkscape.org/namespaces/inkscape"
   width="748"
   height="1097"
   version="1.1"
   id="svg3959"
   sodipodi:docname="horse.svg"
   inkscape:version="0.92.4 (5da689c313, 2019-01-14)">
  <metadata
     id="metadata3965">
    <rdf:RDF>
      <cc:Work
         rdf:about="">
        <dc:format>image/svg+xml</dc:format>
        <dc:type
           rdf:resource="http://purl.org/dc/dcmitype/StillImage" />
        <dc:title />
      </cc:Work>
    </rdf:RDF>
  </metadata>
  <defs
     id="defs3963" />
  <sodipodi:namedview
     pagecolor="#ffffff"
     bordercolor="#666666"
     borderopacity="1"
     objecttolerance="10"
     gridtolerance="10"
     guidetolerance="10"
     inkscape:pageopacity="0"
     inkscape:pageshadow="2"
     inkscape:window-width="2256"
     inkscape:window-height="1410"
     id="namedview3961"
     showgrid="true"
     inkscape:pagecheckerboard="true"
     inkscape:zoom="0.70710678"
     inkscape:cx="624.05617"
     inkscape:cy="326.9682"
     inkscape:window-x="-11"
     inkscape:window-y="-11"
     inkscape:window-maximized="1"
     inkscape:current-layer="svg3959">
    <inkscape:grid
       type="xygrid"
       id="grid4123" />
  </sodipodi:namedview>
  <path
     id="path3957"
     style="fill:#7a0e0e;stroke:none;fill-opacity:1"
     d="m 171,619 c -0.088,4.265 0.212,13.426 -3.514,16.292 -2.149,1.654 -5.151,0.296 -7.486,-0.173 -6.68,-1.343 -13.38,-2.487 -20,-4.119 -2.846,11.552 -1.726,23.221 -2.015,35 -0.399,16.316 -0.985,32.618 -0.985,49 0,19.715 -3,39.209 -3,59 0,41.806 2.494,83.809 -6.12,125 -5.821,27.842 -25.126,51.177 -37.88,76 6.1389,-2.378 10.503,-7.377 15.285,-11.749 16.843,-15.4 27.684,-38.428 36.161,-59.251 16.82,-41.318 25.421,-86.553 28.464,-131 2.333,-34.067 -0.911,-69.489 7.09,-103 h 2 c 2.769,8.746 8.918,16.799 13.077,25 9.464,18.659 17.528,38.132 31.638,53.911 5.425,6.066 11.342,12.553 19.285,15.089 2.395,-30.348 2.241,-66.601 -13.173,-94 -7.849,-13.953 -20.35,-25.772 -33.112,-35.214 C 189.107,629.157 180.281,621.388 171,619 m 350,144 c 9.192,-3.125 16.937,-13.567 22.789,-21 12.548,-15.935 20.674,-33.895 29.469,-52 4.44,-9.141 10.493,-19.075 12.742,-29 3.453,7.173 2.435,15.283 3.17,23 1.904,20.008 2.352,39.908 2.845,60 0.654,26.721 3.787,53.693 8.522,80 5.867,32.597 12.461,63.985 27.219,94 9.695,19.718 21.842,43.472 42.244,54 -2.803,-13.078 -13.002,-25.515 -19.573,-37 -9.3,-16.257 -15.999,-34.309 -18.243,-53 -2.706,-22.548 -1.725,-45.39 -3.273,-68 -1.758,-25.665 -4.529,-51.173 -3.896,-77 0.847,-34.584 5.782,-70.89 -2.015,-105 -6.457,0.018 -12.623,1.536 -19,2.424 -2.759,0.385 -6.133,1.271 -8.816,0.112 -3.892,-1.683 -6.742,-7.239 -9.184,-10.536 -6.573,1.897 -12.223,6.043 -18,9.612 -25.248,15.597 -42.759,42.159 -47.676,71.388 -1.503,8.935 -1.324,17.974 -1.324,27 0,9.765 -0.768,21.637 2,31 M 239,921 c 26.543,-5.15 63.254,-15.74 84,8 -13.393,0 -25.009,-2.607 -38,-5.576 -6.292,-1.438 -12.981,-4.1 -18.96,-0.276 -8.704,5.567 -11.094,17.42 -12.461,26.852 -4.198,28.983 8.992,52.2 22.123,77 4.828,9.12 10.094,21.49 19.299,26.99 5.203,3.11 12.291,2.21 17.999,1.26 12.761,-2.13 25.252,-5.71 38,-7.93 19.34,-3.36 41.715,-3.54 61,0.35 9.65,1.94 19.402,3.67 29,5.83 6.981,1.57 15.786,4.29 22.985,3.59 4.546,-0.44 7.76,-5.64 10.115,-9.09 6.454,-9.45 10.718,-20.08 16.324,-30 5.87,-10.39 12.726,-20.642 16.625,-32 4.182,-12.179 4.256,-27.513 1.612,-40 -1.251,-5.908 -1.804,-14.842 -6.313,-19.348 -2.882,-2.881 -7.593,-3.204 -11.348,-4.127 -9.239,-2.269 -19.479,-4.446 -29,-4.525 7.024,-2.969 14.488,-3 22,-3 13.326,0 26.793,1.331 40,3 -1.153,-14.589 -6.242,-28.802 -9.5,-43 -7.786,-33.926 -16.85,-68.47 -21.5,-103 -21.009,0 -41.913,-2 -63,-2 -5.423,0 -10.616,0.217 -15.999,0.835 -1.977,0.227 -4.595,0.027 -5.973,1.768 C 406.229,774.876 407,779.306 407,782 v 24 72 c 0,13.198 1.506,28.082 -1.848,40.961 -2.243,8.613 -13.757,15.92 -22.152,17.329 -10.63,1.785 -22.808,-9.645 -25.292,-19.29 -1.49,-5.787 -0.489,-12.089 -0.747,-18 -1.36,-31.039 0.039,-61.992 0.039,-93 0,-8.038 -0.999,-15.946 -1,-24 0,-2.693 0.772,-7.125 -1.028,-9.397 C 352.685,769.716 346.22,771.131 343,770.911 331.644,770.133 320.41,770 309,770 c -9.808,0 -19.278,0.028 -29,1.421 -2.672,0.382 -7.059,-0.112 -9.272,1.607 -2.735,2.124 -3.235,7.812 -3.805,10.972 -1.622,8.988 -2.857,18.03 -4.534,27 -4.325,23.13 -9.336,46.076 -14.624,69 -3.08,13.35 -7.677,27.332 -8.765,41 z M 491,0 v 3 h 2 V 0 Z m 6,0 c 1.717,1.83984 2.566,2.34863 5,3 -1.446,-2.282837 -2.31,-2.582397 -5,-3 z M 135,36 c -3.201,7.077 -8.39666,15.0212 -8.72266,23 -0.307,7.5027 2.69999,16.6276 4.20899,24 1.759,8.5962 2.79783,18.261 3.42383,27 2.553,35.604 3.84839,71.825 10.40039,107 4.151,22.283 11.38945,43.827 15.68945,66 -7.119,2.606 -13.32,7.445 -20,11 -3.061,-8.075 -8.97086,-15.236 -12.88086,-23 -5.398,-10.717 -9.34539,-22.46 -12.52539,-34 -6.943,-25.194 -9.28791,-53.949 -7.50391,-80 1.236,-18.055 4.48616,-35.95 5.91016,-54 -3.666,2.501 -4.40819,6.933 -5.74219,11 -2.474,7.545 -4.76664,15.173 -6.18164,23 -5.929996,32.809 -6.423334,65.324 1.25977,98 1.815,7.717 4.775,15.02 8.5,22 1.505,2.819 5.10012,7.20617 4.57812,10.57617 -0.383,2.469 -2.86701,4.63783 -4.41601,6.42383 C 106.38605,279.319 101.339,283.98817 96,288.57617 76.1626,305.62217 53.59,319.313 32,334 c 6.8065,5.157 22.3676,0.20539 30,-1.84961 C 86.5671,325.53639 111.137,313.214 137,313 124.965,334.617 109.99325,354.093 100.15625,377 90.12555,400.355 85.958,425.724 76.125,449 71.7213,459.424 61.9853,466.71 58,477 c 13.3973,5.026 27.9716,6.23283 42,8.29883 12.186,1.796 24.707,3.74433 37,4.61133 9.124,0.643 17.941,2.10862 27,3.14062 4.992,0.569 11.58839,0.68397 15.77539,3.79297 7.42,5.51 8.91691,19.34425 5.87891,27.15625 -6.286,16.162 -21.37013,31.528 -14.32813,50 2.399,6.295 6.91722,11.796 11.07422,17 5.576,6.981 11.58361,13.75298 18.59961,19.33398 15.557,12.374 33.84608,21.79602 46.33008,37.66602 11.635,14.79 17.03376,33.587 19.38476,52 1.29,10.107 1.37316,21.239 4.28516,31 7.517,-7.311 9.77683,-20.208 12.42383,-30 6.19,-22.897 5.52409,-46.651 7.74609,-70 1.179,-12.394 3.38197,-29.15005 -1.45703,-40.99805 C 286.02989,580.98395 275.323,578.521 269,572 c 7.963,0.793 21.23316,3.64569 26.41016,10.30469 2.25,2.894 2.49445,7.21231 3.18945,10.69531 1.989,9.959 2.39939,20.846 2.40039,31 10e-4,23.47 -0.45522,47.788 -4.32422,71 -3.233,19.396 -9.15778,38.505 -11.67578,58 19.666,4.057 41.956,7.05583 62,4.42383 4.296,-0.564 12.91548,1.30583 16.39648,-1.45117 2.812,-2.227 2.28068,-11.55566 2.51368,-14.97266 1.024,-14.949 -0.30064,-30.127 1.81836,-45 C 370.84952,674.095 370,651.123 370,629 v -95 c 0,-13.894 0.98416,-28.207 -0.71484,-42 -0.778,-6.309 -1.70814,-12.74845 -5.99414,-17.81445 -5.528,-6.534 -14.44002,-7.3051 -22.29102,-8.6211 -18.25,-3.061 -35.692,-1.6544 -54,-1.5664 -7.664,0.037 -17.53631,-1.68769 -24.94531,0.32031 -6.34,1.718 -4.34322,12.75206 -10.19922,13.66406 -3.243,0.504 -7.84147,-2.67867 -10.85547,-3.76367 -7.229,-2.6 -15.319,-4.59891 -23,-5.12891 -13.647,-0.94 -27.368,-0.24668 -41,-1.17968 C 147.99,465.92316 119.127,463 90,463 c 1.4597,-8.587 5.062031,-16.935 8.269531,-25 8.493699,-21.357 19.990879,-41.703 32.421879,-61 7.088,-11.003 16.93559,-23.763 29.30859,-29 -2.808,9.24 -3.53755,19.482 -5.31055,29 -3.142,16.868 -7.6045,34.786 -7.6875,52 -0.028,5.755 -0.53311,11.283 -0.91211,17 -0.147,2.2 -0.5375,5.53448 0.9375,7.39648 C 149.46734,456.47748 157.524,455 161,455 h 39 160 l 1,-140 c 7.014,-0.906 13.923,-2.40616 21,-2.91016 2.721,-0.194 6.34306,-0.67017 8.78906,0.79883 7.36,4.421 8.41527,18.58433 9.82227,26.11133 4.898,26.191 -1.43917,53.628 1.67383,80 1.685,14.267 4.99697,28.518 3.54296,43 -0.81999,8.171 -4.26934,16.043 -6.15234,24 -3.574,15.106 -5.52894,30.555 -6.58594,46 -0.86,12.554 -0.0898,25.416 -0.0898,38 0,20.008 -0.27616,40.06 1.08984,60 0.935,13.656 2.74325,27.299 2.90625,41 0.218,18.319 1.00291,36.745 1.00391,55 10e-4,8.357 -2.06164,19.83556 0.31836,27.85156 1.583,5.331 12.42664,2.91336 16.68164,3.31836 15.527,1.477 30.519,-0.0109 46,-1.25586 3.893,-0.313 13.60247,0.15164 15.35547,-4.19336 1.182,-2.928 -0.76155,-6.7797 -1.18555,-9.7207 -1.349,-9.349 -3.04325,-18.706 -4.78125,-28 C 465.11467,685.796 459,655.739 459,627 c 0,-10.718 0.532,-26.11 7,-35 10e-4,13.371 3.34117,26.729 4.82617,40 2.73,24.403 5.28897,48.895 10.29297,73 1.729,8.33 4.74286,16.59 5.88086,25 4.821,-5.08 5.25016,-13.388 6.66016,-20 3.508,-16.441 3.66379,-36.199 12.21679,-51 C 512.53595,647.476 524.061,639.23552 534,630.72852 551.898,615.40952 571.71408,599.589 586.33008,581 c 7.105,-9.036 6.79701,-18.018 6.66601,-29 -0.05,-4.189 -0.0727,-10.18542 -3.42968,-13.23242 C 584.73341,534.38258 575.1,535.469 569,534 c 5.478,-12.309 7.61363,-28.80541 19.01562,-37.44141 5.087,-3.854 12.79838,-4.91612 18.98438,-5.82812 11.38,-1.677 22.529,-2.97931 34,-3.82031 28.843,-2.116 56.487,-8.09416 84,-16.91016 -5.459,-4.063 -12.571,-3.48723 -19,-4.61523 C 685.794,461.83877 664.462,464 644,464 c -19.529,0 -39.52,-1.24416 -59,0.0898 -22.546,1.544 -44.293,5.17625 -67,4.90625 -12.858,-0.153 -26.136,-3.60217 -39,-4.82617 C 462.681,462.61692 445.397,463 429,463 v -2 c 18.318,-0.051 36.722,-4.65116 55,-5.91016 26.073,-1.795 52.86,-0.0898 79,-0.0898 12.756,0 25.436,-0.76313 38,-2.70312 3.769,-0.582 10.29648,0.003 13.39648,-2.47461 2.151,-1.721 1.59852,-5.40227 1.60352,-7.82227 0.014,-6.666 0.03,-13.334 -0.002,-20 -0.108,-22.351 -7.23072,-45.308 -12.01172,-67 -1.629,-7.388 -6.03306,-16.41909 -5.66406,-23.99609 0.298,-6.114 8.28873,-9.09382 12.67773,-12.00782 10.083,-6.693 18.33487,-14.55309 24.54688,-24.99609 17.33199,-29.134 27.22096,-66.454 29.54296,-100 0.35,-5.043 1.77053,-9.929 1.89454,-15 0.20699,-8.451 -1.48222,-16.607 -1.94922,-25 -0.718,-12.879 -4.0483,-25.883 -8.4043,-38 -1.571,-4.372 -2.81686,-10.148 -6.63086,-13 0.054,19.66 6.09594,39.266 6.96094,59 0.645,14.736 -1.25878,29.525 -3.67578,44 -2.71,16.227 -5.32022,32.408 -10.82422,48 -5.078,14.384 -12.62094,27.025 -20.46094,40 -4.734,-3.44 -15.24583,-6.96213 -17.79883,-12.32812 -2.191,-4.606 2.648,-14.09588 4,-18.67188 4.46,-15.092 6.70908,-30.697 10.20508,-46 2.954,-12.93 3.42661,-26.823 4.76563,-40 1.55299,-15.291 3.68128,-30.654 4.73828,-46 0.661,-9.603 0.1389,-19.448 1.3789,-29 2.692,-20.7252 11.29494,-43.1227 0.71094,-63 -13.182,11.7087 -19.83283,32.1469 -26.42383,48 -10.054,24.184 -19.24786,48.741 -29.13086,73 -4.18,10.261 -8.11129,21.267 -13.40429,31 -11.994,22.053 -35.05202,31.511 -54.04102,46 -0.659,-10.235 1.51294,-20.772 1.96094,-31 0.607,-13.896 -1.53208,-29.585 -8.08008,-42 C 489.44286,142.315 465.095,128.42917 444,117.57617 417.492,103.93917 386.712,92.148263 357,88.289062 343.823,86.577462 330.277,87 317,87 c -15.268,0 -30.811,-0.276578 -46,1.169922 -23.687,2.2559 -46.531,7.80583 -69,15.615238 -6.563,2.28 -13.314,3.92148 -20,5.77148 -2.9,0.802 -6.81016,2.65509 -9.78516,1.24609 C 167.18384,108.41973 164.28008,96.8306 162.08008,92 153.64508,73.4801 144.811,54.7621 137,36 Z m 47.88867,84.94727 C 203.1446,121.09028 227.3485,122.48663 246,128 c -3.144,6.742 -9.78106,12.59794 -14.91406,17.96094 C 220.93494,156.56794 210.482,169.192 198,177 192.768,167.808 188.90437,157.757 184.85938,148 182.43038,142.141 179.561,136.383 179,130 l -4.52344,-9.04492 c 2.70488,-0.0224 5.51841,-0.0282 8.41211,-0.008 z M 263,487 c 13.177,9.282 23.853,25.234 30,40 -16.341,-5.173 -31.604,-22.035 -30,-40 z m 242,0 c 1.604,17.965 -13.659,34.827 -30,40 6.147,-14.766 16.823,-30.718 30,-40 z m -290,8 c 38.677,1.66 65.263,35.225 82,67 -7.721,-0.069 -15.706,-2.47878 -23,-4.92578 C 254.735,550.61122 231.74647,540.453 221.10547,522 216.66547,514.3 215.376,503.75 215,495 Z m 333,0 c -1.888,10.131 -2.90861,21.216 -8.84961,30 -3.826,5.656 -9.64639,9.55416 -15.15039,13.41016 -16.889,11.829 -38.025,19.01084 -58,23.58984 3.366,-10.151 12.66545,-19.02008 19.68945,-26.83008 10.567,-11.751 22.13455,-25.41061 36.31055,-32.84961 7.867,-4.128 17.243,-6.18931 26,-7.32031 z m -342,55 c 19.19,0.824 46.04,6.785 55,26 -20.149,-1.59 -41.099,-11.127 -55,-26 z m 339,1 c -8.96,19.215 -35.81,25.176 -55,26 13.901,-14.873 34.851,-24.41 55,-26 z" />
  <g
     inkscape:groupmode="layer"
     id="layer1"
     inkscape:label="eyes">

    <path
       inkscape:connector-curvature="0"
       id="path4045-5-0"
       style="fill:#ffffff;stroke:none"
       d="m 490,577 c 13.901,-14.873 34.851,-24.41 55,-26 -8.96,19.215 -35.81,25.176 -55,26 m 15,-90 c 1.604,17.965 -13.659,34.827 -30,40 6.147,-14.766 16.823,-30.718 30,-40 m -299,63 c 13.901,14.873 34.851,24.41 55,26 -8.96,-19.215 -35.81,-25.176 -55,-26 m 260,12 c 19.975,-4.579 41.111,-11.76 58,-23.589 5.504,-3.856 11.324,-7.755 15.15,-13.411 5.941,-8.784 6.962,-19.869 8.85,-30 -8.757,1.131 -18.133,3.192 -26,7.32 -14.176,7.439 -25.743,21.099 -36.31,32.85 -7.024,7.81 -16.324,16.679 -19.69,26.83 M 215,495 c 0.376,8.75 1.665,19.3 6.105,27 10.641,18.453 33.63,28.611 52.895,35.074 7.294,2.447 15.279,4.857 23,4.926 -16.737,-31.775 -43.323,-65.34 -82,-67 m 48,-8 c -1.604,17.965 13.659,34.827 30,40 -6.147,-14.766 -16.823,-30.718 -30,-40" >
      <animate id="animation1"
             attributeName="opacity"
             from="0" to="1" dur="3s"
             begin="0s;animation2.end" />
      <animate id="animation2"
             attributeName="opacity"
             from="1" to="0" dur="3s" 
             begin="animation1.end" />
     </path>
  </g>
</svg>
